<svg xmlns="http://www.w3.org/2000/svg" viewBox="0 0 800 520"><defs><linearGradient id="a" x1="0" y1="0" x2="1" y2="1"><stop stop-color="#eceff2"/><stop offset=".5" stop-color="#7e858d"/><stop offset="1" stop-color="#d7dade"/></linearGradient><filter id="s"><feDropShadow dx="0" dy="18" stdDeviation="16" flood-opacity=".5"/></filter></defs><rect width="800" height="520" fill="#0b0e12"/><circle cx="665" cy="85" r="200" fill="#c91c2924"/><g transform="translate(175 60)" filter="url(#s)"><path d="M70 95l80-48 180 22 92 84-25 150-105 65-170-24-70-100z" fill="url(#a)" stroke="#4e545b" stroke-width="10"/><circle cx="225" cy="205" r="112" fill="#343940" stroke="#b6bbc0" stroke-width="18"/><circle cx="225" cy="205" r="78" fill="#0b0d10" stroke="#555b62" stroke-width="9"/><path d="M155 205h140" stroke="#aeb3b9" stroke-width="16"/><circle cx="225" cy="205" r="13" fill="#dfe2e5"/><path d="M390 122h70v170h-70" fill="#20252b" stroke="#4f565e" stroke-width="8"/><rect x="428" y="156" width="80" height="84" rx="14" fill="#292f36"/><g fill="#565d65"><circle cx="93" cy="105" r="14"/><circle cx="352" cy="102" r="14"/><circle cx="105" cy="310" r="14"/><circle cx="350" cy="320" r="14"/></g></g><text x="52" y="450" fill="#fff" font-family="Arial Black,Arial" font-size="42">THROTTLE BODY</text><text x="54" y="485" fill="#9ba1a9" font-family="Arial" font-size="18" letter-spacing="4">ENGINE CONTROL PART</text></svg>